# xmcd
#
# Track frame offsets: 
#        150
#        17912
#        33500
#        52237
#        68387
#        90237
#
# Disc length: 1391 seconds
#
# Revision: 0
# Processed by: cddbd v1.5.2PL0 Copyright (c) Steve Scherf et al.
# Submitted via: ExactAudioCopy v0.99pb3
#
DISCID=43056d06
DTITLE=One Head Jet - Snickedy Palace
DYEAR=1992
DGENRE=Phantom
TTITLE0=Black River
TTITLE1=Telegraph Pole
TTITLE2=Stumble On
TTITLE3=Have My Baby
TTITLE4=Christmas Day
TTITLE5=Winter
EXTD=
EXTT0=
EXTT1=
EXTT2=
EXTT3=
EXTT4=
EXTT5=
PLAYORDER=
